<?xml version="1.0" encoding="UTF-8"?>
<svg version="1.1" xmlns="http://www.w3.org/2000/svg" width="282" height="281">
<path d="M0 0 C93.06 0 186.12 0 282 0 C282 92.73 282 185.46 282 281 C188.94 281 95.88 281 0 281 C0 229.19 0 177.38 0 124 C11.22 124 22.44 124 34 124 C34 164.26 34 204.52 34 246 C104.62 246 175.24 246 248 246 C248 176.37 248 106.74 248 35 C177.38 35 106.76 35 34 35 C34 44.24 34 53.48 34 63 C22.78 63 11.56 63 0 63 C0 42.21 0 21.42 0 0 Z " fill="#054362" transform="translate(0,0)"/>
<path d="M0 0 C39.6 0 79.2 0 120 0 C120 10.23 120 20.46 120 31 C105.81 31 91.62 31 77 31 C77 72.58 77 114.16 77 157 C65.78 157 54.56 157 43 157 C43 115.42 43 73.84 43 31 C28.81 31 14.62 31 0 31 C0 20.77 0 10.54 0 0 Z " fill="#0A714C" transform="translate(81,62)"/>
</svg>
